<svg xmlns="http://www.w3.org/2000/svg" width="539" height="150" viewBox="0 0 539 150" fill="none"><mask id="mask0_213_155" style="mask-type:alpha" maskUnits="userSpaceOnUse" x="0" y="0" width="150" height="150"><path d="M150 75C150 116.421 116.421 150 75 150C33.5786 150 0 116.421 0 75C0 33.5786 33.5786 0 75 0C116.421 0 150 33.5786 150 75Z" fill="#D9D9D9"></path></mask><g mask="url(#mask0_213_155)"><path d="M150 75C150 116.421 116.421 150 75 150C33.5786 150 0 116.421 0 75C0 33.5786 33.5786 0 75 0C116.421 0 150 33.5786 150 75Z" fill="url(#paint0_linear_213_155)"></path><path d="M23.4697 38.7323L33.2498 46.9733C33.7494 58.0001 35.9998 66.2503 45.4997 73.2501L42.5001 77.5C24.3164 71.7773 20.6856 57.2646 20.2342 40.2634C20.189 38.5632 22.1691 37.6364 23.4697 38.7323Z" fill="#00111F"></path><path d="M116.039 69.5534L71.2798 65.104C59.4907 48.8649 53.1862 39.4874 43.9075 26.7807C42.9286 25.44 40.8453 25.8278 40.444 27.4386C34.1457 52.7251 40.6027 65.4404 52.5087 72.0844L34.6934 101.442C31.2446 107.125 27.1008 112.356 22.3579 117.015L1.5 137.5C3.77943 157.662 79.2798 176 79.2798 165.5V128.96C79.2798 122.683 82.2268 116.778 87.2387 112.999L121.07 87.4889C128.34 82.0075 125.099 70.454 116.039 69.5534Z" fill="#00111F"></path><path d="M88.0548 81.9999C88.0548 84.7235 85.8469 86.9314 83.1233 86.9314C80.3997 86.9314 78.1918 84.7235 78.1918 81.9999C78.1918 79.2763 80.3997 77.0684 83.1233 77.0684C85.8469 77.0684 88.0548 79.2763 88.0548 81.9999Z" fill="white"></path></g><path d="M508.17 119C492.202 119 477.796 107.234 477.796 89.5864C477.796 71.8183 492.202 60.053 508.17 60.053C524.137 60.053 538.664 71.8183 538.664 89.5864C538.664 107.234 524.137 119 508.17 119ZM508.17 102.552C515.013 102.552 520.535 97.2699 520.535 89.5864C520.535 81.9029 515.013 76.5005 508.17 76.5005C501.327 76.5005 495.804 81.9029 495.804 89.5864C495.804 97.2699 501.327 102.552 508.17 102.552Z" fill="black"></path><path d="M442.599 119C426.632 119 412.225 107.234 412.225 89.5864C412.225 71.8183 426.632 60.053 442.599 60.053C458.566 60.053 473.093 71.8183 473.093 89.5864C473.093 107.234 458.566 119 442.599 119ZM442.599 102.552C449.442 102.552 454.965 97.2699 454.965 89.5864C454.965 81.9029 449.442 76.5005 442.599 76.5005C435.756 76.5005 430.234 81.9029 430.234 89.5864C430.234 97.2699 435.756 102.552 442.599 102.552Z" fill="black"></path><path d="M404.515 60.053C407.156 60.053 410.037 60.2931 412.919 61.7337L408.717 78.6614C405.235 76.6205 402.474 76.5005 400.673 76.5005C393.71 76.5005 387.947 82.3831 387.947 98.9507V117.559H370.179V61.4936H387.707V73.379C390.949 64.1348 397.672 60.053 404.515 60.053Z" fill="black"></path><path d="M355.237 117.559H337.469V31H355.237V117.559Z" fill="black"></path><path d="M322.527 117.559H304.759V31H322.527V117.559Z" fill="black"></path><path d="M280.933 53.09C274.93 53.09 269.888 48.4079 269.888 42.7653C269.888 36.8826 274.93 32.4406 280.933 32.4406C286.935 32.4406 291.738 36.8826 291.738 42.7653C291.738 48.4079 286.935 53.09 280.933 53.09ZM289.817 117.559H272.049V61.4938H289.817V117.559Z" fill="black"></path><path d="M244.701 73.3794C255.626 74.9401 260.668 84.3043 260.668 93.7887C260.668 105.074 253.345 117.559 233.896 117.559H198V34.8419H231.495C246.622 34.8419 256.347 43.966 256.347 56.2116C256.347 61.9742 254.186 70.6181 244.701 73.3794ZM237.498 59.2129C237.498 55.011 235.337 51.2893 230.175 51.2893H216.849V67.1365H230.055C234.497 67.1365 237.498 64.2552 237.498 59.2129ZM216.849 101.112H231.615C238.338 101.112 241.7 96.5499 241.7 91.8678C241.7 87.5458 238.698 82.6236 231.615 82.6236H216.849V101.112Z" fill="black"></path><defs><linearGradient id="paint0_linear_213_155" x1="-0.136953" y1="3.66708e-07" x2="149.863" y2="150" gradientUnits="userSpaceOnUse"><stop offset="0.151042" stop-color="#7F61FF"></stop><stop offset="1" stop-color="#00DAA4"></stop></linearGradient></defs></svg>